<svg width="29" height="30" viewBox="0 0 29 30" fill="none" xmlns="http://www.w3.org/2000/svg">
<path fill-rule="evenodd" clip-rule="evenodd" d="M26.4782 8.38098C27.5462 9.23996 28.1732 10.5322 28.1869 11.9027L28.1738 23.8636C28.1738 27.1125 25.5401 29.7462 22.2912 29.7462H19.6825C18.11 29.7462 16.8332 28.4752 16.826 26.9027V21.5027C16.826 21.0849 16.4873 20.7462 16.0695 20.7462H12.1564C11.9535 20.7462 11.7591 20.8277 11.6168 20.9724C11.4746 21.1171 11.3964 21.3129 11.3999 21.5158V23.5766C11.3999 24.225 10.8743 24.7505 10.226 24.7505C9.57766 24.7505 9.05208 24.225 9.05208 23.5766V21.5158C9.05208 20.689 9.38052 19.8961 9.96515 19.3114C10.5498 18.7268 11.3427 18.3984 12.1695 18.3984H16.0825C17.7991 18.4056 19.1869 19.7992 19.1869 21.5158V26.9027C19.1869 27.1765 19.4088 27.3984 19.6825 27.3984H22.3564C24.3014 27.3984 25.8782 25.8216 25.8782 23.8766V11.9288C25.8686 11.2669 25.5621 10.6444 25.0434 10.2332L16.0303 3.0462C14.8938 2.11051 13.2538 2.11051 12.1173 3.0462L9.22165 5.21142C8.68497 5.59682 7.93748 5.47418 7.55208 4.93751C7.16669 4.40083 7.28932 3.65334 7.826 3.26794L10.6825 1.19403C12.6631 -0.398009 15.4845 -0.398009 17.4651 1.19403L26.4782 8.38098ZM5.88261 27.3851H11.8826V27.4112C12.5309 27.4112 13.0565 27.9368 13.0565 28.5851C13.0565 29.2335 12.5309 29.759 11.8826 29.759H5.88261C2.63671 29.7519 0.00717329 27.1223 0 23.8764V11.9286C0.0207529 10.548 0.668813 9.25185 1.76087 8.40687L2.84348 7.59817C3.35328 7.35784 3.96193 7.51374 4.29343 7.96955C4.62493 8.42536 4.58571 9.05244 4.2 9.46339L3.14348 10.246C2.64287 10.6619 2.35164 11.2778 2.34783 11.9286V23.8634C2.36211 25.8075 3.93843 27.378 5.88261 27.3851Z" fill="#200E32"/>
</svg>
